<svg xmlns="http://www.w3.org/2000/svg" xmlns:xlink="http://www.w3.org/1999/xlink" viewBox="0,0,256,256" width="240px" height="240px" fill-rule="nonzero"><g fill="none" fill-rule="nonzero" stroke="none" stroke-width="1" stroke-linecap="butt" stroke-linejoin="miter" stroke-miterlimit="10" stroke-dasharray="" stroke-dashoffset="0" font-family="none" font-weight="none" font-size="none" text-anchor="none" style="mix-blend-mode: normal"><g transform="scale(5.33333,5.33333)"><path d="M42,37c0,2.762 -2.238,5 -5,5h-26c-2.761,0 -5,-2.238 -5,-5v-26c0,-2.762 2.239,-5 5,-5h26c2.762,0 5,2.238 5,5z" fill="#000000"></path><path d="M31.62,13v8.43c-1.11,-2.1 -2.96,-3.43 -5.62,-3.43c-4.86,0 -8.81,4.43 -8.81,9.88c0,5.44 3.95,9.87 8.81,9.87c2.66,0 4.5,-1.32 5.62,-3.41v2.78h5.26v-25.12zM26.505,32.75c-2.482,0 -4.505,-2.19 -4.505,-4.87c0,-2.69 2.023,-4.88 4.505,-4.88c2.472,0 4.495,2.19 4.495,4.88c0,2.68 -2.023,4.87 -4.495,4.87z" fill="#ffffff"></path></g></g></svg>