<?xml version="1.0" standalone="no"?>
<!DOCTYPE svg PUBLIC "-//W3C//DTD SVG 20010904//EN"
 "http://www.w3.org/TR/2001/REC-SVG-20010904/DTD/svg10.dtd">
<svg version="1.0" xmlns="http://www.w3.org/2000/svg"
 width="80.000000pt" height="80.000000pt" viewBox="0 0 80.000000 80.000000"
 preserveAspectRatio="xMidYMid meet">

<g transform="translate(0.000000,80.000000) scale(0.100000,-0.100000)"
fill="#000000" stroke="none">
<path d="M0 400 l0 -400 400 0 400 0 0 400 0 400 -400 0 -400 0 0 -400z m420
244 c27 -23 34 -25 56 -15 36 16 65 14 100 -8 66 -41 66 -140 0 -181 -41 -25
-72 -25 -110 -2 -29 17 -31 17 -65 0 -43 -22 -73 -23 -112 -3 -63 33 -88 121
-50 179 41 62 126 76 181 30z m159 -249 c38 -19 54 -63 49 -132 -4 -48 -10
-61 -38 -86 -32 -28 -34 -29 -132 -25 -95 3 -101 4 -124 31 l-24 28 -39 -21
c-79 -40 -101 -20 -101 86 0 116 21 134 103 95 l39 -18 28 29 c27 27 33 28
120 28 60 0 101 -5 119 -15z"/>
<path d="M320 608 c-31 -12 -40 -25 -40 -65 0 -56 69 -84 110 -43 51 51 -3
133 -70 108z"/>
<path d="M488 569 c-36 -21 -12 -89 32 -89 10 0 26 7 34 16 44 44 -12 105 -66
73z"/>
<path d="M382 344 c-18 -12 -22 -25 -22 -63 0 -29 6 -53 14 -60 9 -8 46 -11
103 -9 l88 3 3 60 c3 47 0 62 -14 72 -26 19 -144 17 -172 -3z"/>
<path d="M230 280 l0 -50 40 20 c22 11 40 25 40 30 0 5 -18 19 -40 30 l-40 20
0 -50z"/>
</g>
</svg>
